<svg xmlns="http://www.w3.org/2000/svg" xmlns:xlink="http://www.w3.org/1999/xlink" width="291" height="566" viewBox="0 0 291 566"><defs><style>.a,.b{fill:#fff;}.b{opacity:0.378;}.c,.d{clip-path:url(#a);}.d{opacity:0.23;}</style><clipPath id="a"><rect class="a" width="23" height="18" transform="translate(2423 251)"/></clipPath></defs><g transform="translate(-56 -165)"><path class="a" d="M31.587,35.83a1.386,1.386,0,0,0,1.381,1.326h.027a1.378,1.378,0,0,0,1.355-1.377c0-5.734,5.746-6.249,6.4-6.288a1.382,1.382,0,0,0-.08-2.76c-6.1,0-6.319-5.684-6.323-6.331v0a1.381,1.381,0,0,0-2.762-.025V20.4c0,5.9-6.161,6.282-6.863,6.309a1.382,1.382,0,0,0,.043,2.762A6.44,6.44,0,0,1,31.587,35.83ZM32.94,25.373a8.037,8.037,0,0,0,2.785,2.867,8.478,8.478,0,0,0-2.832,2.705A8.48,8.48,0,0,0,30,28.029,8.549,8.549,0,0,0,32.94,25.373Zm98.374,37.961a1.385,1.385,0,0,0,1.381,1.326h.027a1.378,1.378,0,0,0,1.355-1.377c0-5.734,5.746-6.247,6.4-6.288a1.382,1.382,0,0,0-.08-2.76c-6.1,0-6.317-5.684-6.323-6.331v0a1.381,1.381,0,0,0-2.762-.025v.029c0,5.9-6.161,6.284-6.863,6.309a1.382,1.382,0,0,0,.043,2.762A6.438,6.438,0,0,1,131.314,63.335Zm1.355-10.456a8.031,8.031,0,0,0,2.783,2.867,8.5,8.5,0,0,0-2.832,2.705,8.48,8.48,0,0,0-2.9-2.916A8.573,8.573,0,0,0,132.668,52.879ZM99.033,96.013a1.374,1.374,0,0,0-1.919.027,6.033,6.033,0,0,1-4.273,2.018,7.606,7.606,0,0,1-4.678-2.02v0A1.382,1.382,0,0,0,86.215,98l.006.008c4.164,4.17.08,8.791-.4,9.3a1.381,1.381,0,0,0,1.981,1.923,6.583,6.583,0,0,1,4.667-2.194,7.7,7.7,0,0,1,4.651,1.862,1.381,1.381,0,0,0,1.915-1.989c-4.041-4.052-.344-8.482.086-8.975A1.383,1.383,0,0,0,99.033,96.013ZM94.6,104.544a8.639,8.639,0,0,0-2.132-.27,8.123,8.123,0,0,0-1.985.241,8.6,8.6,0,0,0,.2-3.988,8.339,8.339,0,0,0,4,.074A8.515,8.515,0,0,0,94.6,104.544ZM79.033,67.227v-.119a2.219,2.219,0,0,0-2.406-2.443c-.043,0-.113,0-.145,0a1.383,1.383,0,0,1-1.322-1.41A1.408,1.408,0,0,1,76.6,61.9h.016a2.24,2.24,0,0,0,2.417-2.564,1.382,1.382,0,0,1,2.762-.078,2.705,2.705,0,0,0,2.7,2.713,1.381,1.381,0,0,1,0,2.762,2.519,2.519,0,0,0-2.7,2.4,1.383,1.383,0,0,1-1.381,1.353h0a1.379,1.379,0,0,1-1.371-1.263h-.006ZM54.969,146.749v-.106a2.22,2.22,0,0,0-2.406-2.458h-.145a1.383,1.383,0,0,1-1.322-1.41,1.473,1.473,0,0,1,1.441-1.353h.016a2.239,2.239,0,0,0,2.417-2.562,1.381,1.381,0,0,1,1.342-1.381,1.432,1.432,0,0,1,1.42,1.3,2.7,2.7,0,0,0,2.7,2.711,1.381,1.381,0,0,1,0,2.762,2.519,2.519,0,0,0-2.7,2.413,1.38,1.38,0,0,1-1.381,1.355h0a1.38,1.38,0,0,1-1.371-1.273h-.006Zm73.359-37.35c-.291.3-1.682,1.891-.34,3.472a1.38,1.38,0,0,1-.718,2.56,1.4,1.4,0,0,1-.767-.229,1.474,1.474,0,0,1-.274-.18l-.006,0s-.053-.053-.08-.084a2.544,2.544,0,0,0-3.444-.016,1.38,1.38,0,0,1-2-1.905l0,0s.043-.039.065-.059a2.258,2.258,0,0,0-.108-3.511,1.381,1.381,0,0,1,1.9-2,3.675,3.675,0,0,0,2.079.823,2.429,2.429,0,0,0,1.743-.816,1.378,1.378,0,1,1,1.95,1.948ZM20.936,96.686l-.006,0,.082-.082a2.217,2.217,0,0,0,.023-3.434c-.016-.016-.039-.039-.059-.057a.182.182,0,0,0-.043-.045,1.383,1.383,0,0,1,2-1.911.291.291,0,0,0,.043.045s.006.008.01.012A2.775,2.775,0,0,0,24.73,92a2.593,2.593,0,0,0,1.78-.9A1.381,1.381,0,0,1,28.516,93a2.724,2.724,0,0,0-.016,3.826l.006,0v0a1.383,1.383,0,0,1-1.95,1.96c-.442-.415-2.282-1.5-3.61-.215a1.381,1.381,0,0,1-2.009-1.889Z" transform="translate(119 206.976)"/><g transform="translate(161 272)"><g transform="translate(10 10)"><path class="a" d="M51,10A41,41,0,1,0,92,51,41.057,41.057,0,0,0,51,10ZM75.879,39.979,46.1,69.778a3.405,3.405,0,0,1-4.822,0L26.121,54.624a5.127,5.127,0,0,1,.016-7.249,5.122,5.122,0,0,1,7.232,0L43.587,57.593h.18L68.63,32.747a5.125,5.125,0,0,1,8.758,3.608A5.086,5.086,0,0,1,75.879,39.979Z" transform="translate(-10 -10)"/></g></g><circle class="a" cx="7" cy="7" r="7" transform="translate(174 717)"/><circle class="b" cx="7" cy="7" r="7" transform="translate(333 165)"/><g class="c" transform="translate(-2117 416)"><path class="a" d="M31.587,35.83a1.386,1.386,0,0,0,1.381,1.326h.027a1.378,1.378,0,0,0,1.355-1.377c0-5.734,5.746-6.249,6.4-6.288a1.382,1.382,0,0,0-.08-2.76c-6.1,0-6.319-5.684-6.323-6.331v0a1.381,1.381,0,0,0-2.762-.025V20.4c0,5.9-6.161,6.282-6.863,6.309a1.382,1.382,0,0,0,.043,2.762A6.44,6.44,0,0,1,31.587,35.83ZM32.94,25.373a8.037,8.037,0,0,0,2.785,2.867,8.478,8.478,0,0,0-2.832,2.705A8.48,8.48,0,0,0,30,28.029,8.549,8.549,0,0,0,32.94,25.373Zm98.374,37.961a1.385,1.385,0,0,0,1.381,1.326h.027a1.378,1.378,0,0,0,1.355-1.377c0-5.734,5.746-6.247,6.4-6.288a1.382,1.382,0,0,0-.08-2.76c-6.1,0-6.317-5.684-6.323-6.331v0a1.381,1.381,0,0,0-2.762-.025v.029c0,5.9-6.161,6.284-6.863,6.309a1.382,1.382,0,0,0,.043,2.762A6.438,6.438,0,0,1,131.314,63.335Zm1.355-10.456a8.031,8.031,0,0,0,2.783,2.867,8.5,8.5,0,0,0-2.832,2.705,8.48,8.48,0,0,0-2.9-2.916A8.573,8.573,0,0,0,132.668,52.879ZM99.033,96.013a1.374,1.374,0,0,0-1.919.027,6.033,6.033,0,0,1-4.273,2.018,7.606,7.606,0,0,1-4.678-2.02v0A1.382,1.382,0,0,0,86.215,98l.006.008c4.164,4.17.08,8.791-.4,9.3a1.381,1.381,0,0,0,1.981,1.923,6.583,6.583,0,0,1,4.667-2.194,7.7,7.7,0,0,1,4.651,1.862,1.381,1.381,0,0,0,1.915-1.989c-4.041-4.052-.344-8.482.086-8.975A1.383,1.383,0,0,0,99.033,96.013ZM94.6,104.544a8.639,8.639,0,0,0-2.132-.27,8.123,8.123,0,0,0-1.985.241,8.6,8.6,0,0,0,.2-3.988,8.339,8.339,0,0,0,4,.074A8.515,8.515,0,0,0,94.6,104.544ZM79.033,67.227v-.119a2.219,2.219,0,0,0-2.406-2.443c-.043,0-.113,0-.145,0a1.383,1.383,0,0,1-1.322-1.41A1.408,1.408,0,0,1,76.6,61.9h.016a2.24,2.24,0,0,0,2.417-2.564,1.382,1.382,0,0,1,2.762-.078,2.705,2.705,0,0,0,2.7,2.713,1.381,1.381,0,0,1,0,2.762,2.519,2.519,0,0,0-2.7,2.4,1.383,1.383,0,0,1-1.381,1.353h0a1.379,1.379,0,0,1-1.371-1.263h-.006ZM54.969,146.749v-.106a2.22,2.22,0,0,0-2.406-2.458h-.145a1.383,1.383,0,0,1-1.322-1.41,1.473,1.473,0,0,1,1.441-1.353h.016a2.239,2.239,0,0,0,2.417-2.562,1.381,1.381,0,0,1,1.342-1.381,1.432,1.432,0,0,1,1.42,1.3,2.7,2.7,0,0,0,2.7,2.711,1.381,1.381,0,0,1,0,2.762,2.519,2.519,0,0,0-2.7,2.413,1.38,1.38,0,0,1-1.381,1.355h0a1.38,1.38,0,0,1-1.371-1.273h-.006Zm73.359-37.35c-.291.3-1.682,1.891-.34,3.472a1.38,1.38,0,0,1-.718,2.56,1.4,1.4,0,0,1-.767-.229,1.474,1.474,0,0,1-.274-.18l-.006,0s-.053-.053-.08-.084a2.544,2.544,0,0,0-3.444-.016,1.38,1.38,0,0,1-2-1.905l0,0s.043-.039.065-.059a2.258,2.258,0,0,0-.108-3.511,1.381,1.381,0,0,1,1.9-2,3.675,3.675,0,0,0,2.079.823,2.429,2.429,0,0,0,1.743-.816,1.378,1.378,0,1,1,1.95,1.948ZM20.936,96.686l-.006,0,.082-.082a2.217,2.217,0,0,0,.023-3.434c-.016-.016-.039-.039-.059-.057a.182.182,0,0,0-.043-.045,1.383,1.383,0,0,1,2-1.911.291.291,0,0,0,.043.045s.006.008.01.012A2.775,2.775,0,0,0,24.73,92a2.593,2.593,0,0,0,1.78-.9A1.381,1.381,0,0,1,28.516,93a2.724,2.724,0,0,0-.016,3.826l.006,0v0a1.383,1.383,0,0,1-1.95,1.96c-.442-.415-2.282-1.5-3.61-.215a1.381,1.381,0,0,1-2.009-1.889Z" transform="translate(2402.828 231.976)"/></g><g class="d" transform="translate(-2367 328)"><path class="a" d="M31.587,35.83a1.386,1.386,0,0,0,1.381,1.326h.027a1.378,1.378,0,0,0,1.355-1.377c0-5.734,5.746-6.249,6.4-6.288a1.382,1.382,0,0,0-.08-2.76c-6.1,0-6.319-5.684-6.323-6.331v0a1.381,1.381,0,0,0-2.762-.025V20.4c0,5.9-6.161,6.282-6.863,6.309a1.382,1.382,0,0,0,.043,2.762A6.44,6.44,0,0,1,31.587,35.83ZM32.94,25.373a8.037,8.037,0,0,0,2.785,2.867,8.478,8.478,0,0,0-2.832,2.705A8.48,8.48,0,0,0,30,28.029,8.549,8.549,0,0,0,32.94,25.373Zm98.374,37.961a1.385,1.385,0,0,0,1.381,1.326h.027a1.378,1.378,0,0,0,1.355-1.377c0-5.734,5.746-6.247,6.4-6.288a1.382,1.382,0,0,0-.08-2.76c-6.1,0-6.317-5.684-6.323-6.331v0a1.381,1.381,0,0,0-2.762-.025v.029c0,5.9-6.161,6.284-6.863,6.309a1.382,1.382,0,0,0,.043,2.762A6.438,6.438,0,0,1,131.314,63.335Zm1.355-10.456a8.031,8.031,0,0,0,2.783,2.867,8.5,8.5,0,0,0-2.832,2.705,8.48,8.48,0,0,0-2.9-2.916A8.573,8.573,0,0,0,132.668,52.879ZM99.033,96.013a1.374,1.374,0,0,0-1.919.027,6.033,6.033,0,0,1-4.273,2.018,7.606,7.606,0,0,1-4.678-2.02v0A1.382,1.382,0,0,0,86.215,98l.006.008c4.164,4.17.08,8.791-.4,9.3a1.381,1.381,0,0,0,1.981,1.923,6.583,6.583,0,0,1,4.667-2.194,7.7,7.7,0,0,1,4.651,1.862,1.381,1.381,0,0,0,1.915-1.989c-4.041-4.052-.344-8.482.086-8.975A1.383,1.383,0,0,0,99.033,96.013ZM94.6,104.544a8.639,8.639,0,0,0-2.132-.27,8.123,8.123,0,0,0-1.985.241,8.6,8.6,0,0,0,.2-3.988,8.339,8.339,0,0,0,4,.074A8.515,8.515,0,0,0,94.6,104.544ZM79.033,67.227v-.119a2.219,2.219,0,0,0-2.406-2.443c-.043,0-.113,0-.145,0a1.383,1.383,0,0,1-1.322-1.41A1.408,1.408,0,0,1,76.6,61.9h.016a2.24,2.24,0,0,0,2.417-2.564,1.382,1.382,0,0,1,2.762-.078,2.705,2.705,0,0,0,2.7,2.713,1.381,1.381,0,0,1,0,2.762,2.519,2.519,0,0,0-2.7,2.4,1.383,1.383,0,0,1-1.381,1.353h0a1.379,1.379,0,0,1-1.371-1.263h-.006ZM54.969,146.749v-.106a2.22,2.22,0,0,0-2.406-2.458h-.145a1.383,1.383,0,0,1-1.322-1.41,1.473,1.473,0,0,1,1.441-1.353h.016a2.239,2.239,0,0,0,2.417-2.562,1.381,1.381,0,0,1,1.342-1.381,1.432,1.432,0,0,1,1.42,1.3,2.7,2.7,0,0,0,2.7,2.711,1.381,1.381,0,0,1,0,2.762,2.519,2.519,0,0,0-2.7,2.413,1.38,1.38,0,0,1-1.381,1.355h0a1.38,1.38,0,0,1-1.371-1.273h-.006Zm73.359-37.35c-.291.3-1.682,1.891-.34,3.472a1.38,1.38,0,0,1-.718,2.56,1.4,1.4,0,0,1-.767-.229,1.474,1.474,0,0,1-.274-.18l-.006,0s-.053-.053-.08-.084a2.544,2.544,0,0,0-3.444-.016,1.38,1.38,0,0,1-2-1.905l0,0s.043-.039.065-.059a2.258,2.258,0,0,0-.108-3.511,1.381,1.381,0,0,1,1.9-2,3.675,3.675,0,0,0,2.079.823,2.429,2.429,0,0,0,1.743-.816,1.378,1.378,0,1,1,1.95,1.948ZM20.936,96.686l-.006,0,.082-.082a2.217,2.217,0,0,0,.023-3.434c-.016-.016-.039-.039-.059-.057a.182.182,0,0,0-.043-.045,1.383,1.383,0,0,1,2-1.911.291.291,0,0,0,.043.045s.006.008.01.012A2.775,2.775,0,0,0,24.73,92a2.593,2.593,0,0,0,1.78-.9A1.381,1.381,0,0,1,28.516,93a2.724,2.724,0,0,0-.016,3.826l.006,0v0a1.383,1.383,0,0,1-1.95,1.96c-.442-.415-2.282-1.5-3.61-.215a1.381,1.381,0,0,1-2.009-1.889Z" transform="translate(2402.828 231.976)"/></g></g></svg>